<mxfile host="app.diagrams.net" agent="Mozilla/5.0 (Windows NT 10.0; Win64; x64) AppleWebKit/537.36 (KHTML, like Gecko) Chrome/131.0.0.0 Safari/537.36" version="24.8.6">
  <diagram name="1 oldal" id="21BZSLKq7APcsH9D_rfI">
    <mxGraphModel dx="2944" dy="1691" grid="1" gridSize="10" guides="1" tooltips="1" connect="1" arrows="1" fold="1" page="1" pageScale="1" pageWidth="1654" pageHeight="1169" math="0" shadow="0">
      <root>
        <mxCell id="0" />
        <mxCell id="1" parent="0" />
        <mxCell id="MIiHgj1x7aSOkdOsiZLY-5" value="CUSTOMER" style="rounded=0;whiteSpace=wrap;html=1;" parent="1" vertex="1">
          <mxGeometry x="1190" y="-575" width="110" height="40" as="geometry" />
        </mxCell>
        <mxCell id="MIiHgj1x7aSOkdOsiZLY-8" value="customer_id" style="ellipse;whiteSpace=wrap;html=1;align=center;fontStyle=4;" parent="1" vertex="1">
          <mxGeometry x="910" y="-485" width="100" height="40" as="geometry" />
        </mxCell>
        <mxCell id="MIiHgj1x7aSOkdOsiZLY-9" value="name" style="ellipse;whiteSpace=wrap;html=1;align=center;" parent="1" vertex="1">
          <mxGeometry x="1020" y="-485" width="100" height="40" as="geometry" />
        </mxCell>
        <mxCell id="MIiHgj1x7aSOkdOsiZLY-10" value="address" style="ellipse;whiteSpace=wrap;html=1;align=center;" parent="1" vertex="1">
          <mxGeometry x="1135" y="-485" width="100" height="40" as="geometry" />
        </mxCell>
        <mxCell id="MIiHgj1x7aSOkdOsiZLY-11" value="phoneNumber" style="ellipse;whiteSpace=wrap;html=1;align=center;" parent="1" vertex="1">
          <mxGeometry x="1250" y="-485" width="100" height="40" as="geometry" />
        </mxCell>
        <mxCell id="MIiHgj1x7aSOkdOsiZLY-12" value="emial" style="ellipse;whiteSpace=wrap;html=1;align=center;" parent="1" vertex="1">
          <mxGeometry x="1370" y="-485" width="100" height="40" as="geometry" />
        </mxCell>
        <mxCell id="MIiHgj1x7aSOkdOsiZLY-13" value="" style="endArrow=none;html=1;rounded=0;exitX=0.5;exitY=0;exitDx=0;exitDy=0;entryX=0.5;entryY=1;entryDx=0;entryDy=0;" parent="1" source="MIiHgj1x7aSOkdOsiZLY-8" target="MIiHgj1x7aSOkdOsiZLY-5" edge="1">
          <mxGeometry width="50" height="50" relative="1" as="geometry">
            <mxPoint x="1140" y="-485" as="sourcePoint" />
            <mxPoint x="1190" y="-535" as="targetPoint" />
          </mxGeometry>
        </mxCell>
        <mxCell id="MIiHgj1x7aSOkdOsiZLY-14" value="" style="endArrow=none;html=1;rounded=0;exitX=0.5;exitY=0;exitDx=0;exitDy=0;entryX=0.5;entryY=1;entryDx=0;entryDy=0;" parent="1" source="MIiHgj1x7aSOkdOsiZLY-9" target="MIiHgj1x7aSOkdOsiZLY-5" edge="1">
          <mxGeometry width="50" height="50" relative="1" as="geometry">
            <mxPoint x="1140" y="-485" as="sourcePoint" />
            <mxPoint x="1190" y="-515" as="targetPoint" />
          </mxGeometry>
        </mxCell>
        <mxCell id="MIiHgj1x7aSOkdOsiZLY-15" value="" style="endArrow=none;html=1;rounded=0;exitX=0.5;exitY=0;exitDx=0;exitDy=0;entryX=0.5;entryY=1;entryDx=0;entryDy=0;" parent="1" source="MIiHgj1x7aSOkdOsiZLY-10" target="MIiHgj1x7aSOkdOsiZLY-5" edge="1">
          <mxGeometry width="50" height="50" relative="1" as="geometry">
            <mxPoint x="1140" y="-485" as="sourcePoint" />
            <mxPoint x="1180" y="-525" as="targetPoint" />
          </mxGeometry>
        </mxCell>
        <mxCell id="MIiHgj1x7aSOkdOsiZLY-16" value="" style="endArrow=none;html=1;rounded=0;exitX=0.5;exitY=0;exitDx=0;exitDy=0;entryX=0.5;entryY=1;entryDx=0;entryDy=0;" parent="1" source="MIiHgj1x7aSOkdOsiZLY-11" target="MIiHgj1x7aSOkdOsiZLY-5" edge="1">
          <mxGeometry width="50" height="50" relative="1" as="geometry">
            <mxPoint x="1140" y="-485" as="sourcePoint" />
            <mxPoint x="1230" y="-505" as="targetPoint" />
          </mxGeometry>
        </mxCell>
        <mxCell id="MIiHgj1x7aSOkdOsiZLY-17" value="" style="endArrow=none;html=1;rounded=0;exitX=0.5;exitY=0;exitDx=0;exitDy=0;entryX=0.5;entryY=1;entryDx=0;entryDy=0;" parent="1" source="MIiHgj1x7aSOkdOsiZLY-12" target="MIiHgj1x7aSOkdOsiZLY-5" edge="1">
          <mxGeometry width="50" height="50" relative="1" as="geometry">
            <mxPoint x="1140" y="-485" as="sourcePoint" />
            <mxPoint x="1190" y="-535" as="targetPoint" />
          </mxGeometry>
        </mxCell>
        <mxCell id="MIiHgj1x7aSOkdOsiZLY-18" value="ORDER" style="rounded=0;whiteSpace=wrap;html=1;" parent="1" vertex="1">
          <mxGeometry x="287.5" y="-575" width="110" height="40" as="geometry" />
        </mxCell>
        <mxCell id="MIiHgj1x7aSOkdOsiZLY-19" value="order_id" style="ellipse;whiteSpace=wrap;html=1;align=center;fontStyle=4;" parent="1" vertex="1">
          <mxGeometry x="67.5" y="-485" width="100" height="40" as="geometry" />
        </mxCell>
        <mxCell id="MIiHgj1x7aSOkdOsiZLY-20" value="date" style="ellipse;whiteSpace=wrap;html=1;align=center;" parent="1" vertex="1">
          <mxGeometry x="177.5" y="-485" width="100" height="40" as="geometry" />
        </mxCell>
        <mxCell id="MIiHgj1x7aSOkdOsiZLY-21" value="price" style="ellipse;whiteSpace=wrap;html=1;align=center;" parent="1" vertex="1">
          <mxGeometry x="292.5" y="-485" width="100" height="40" as="geometry" />
        </mxCell>
        <mxCell id="MIiHgj1x7aSOkdOsiZLY-23" value="status" style="ellipse;whiteSpace=wrap;html=1;align=center;" parent="1" vertex="1">
          <mxGeometry x="527.5" y="-485" width="100" height="40" as="geometry" />
        </mxCell>
        <mxCell id="MIiHgj1x7aSOkdOsiZLY-24" value="" style="endArrow=none;html=1;rounded=0;exitX=0.5;exitY=0;exitDx=0;exitDy=0;entryX=0.5;entryY=1;entryDx=0;entryDy=0;" parent="1" source="MIiHgj1x7aSOkdOsiZLY-19" target="MIiHgj1x7aSOkdOsiZLY-18" edge="1">
          <mxGeometry width="50" height="50" relative="1" as="geometry">
            <mxPoint x="297.5" y="-485" as="sourcePoint" />
            <mxPoint x="347.5" y="-535" as="targetPoint" />
          </mxGeometry>
        </mxCell>
        <mxCell id="MIiHgj1x7aSOkdOsiZLY-25" value="" style="endArrow=none;html=1;rounded=0;exitX=0.5;exitY=0;exitDx=0;exitDy=0;entryX=0.5;entryY=1;entryDx=0;entryDy=0;" parent="1" source="MIiHgj1x7aSOkdOsiZLY-20" target="MIiHgj1x7aSOkdOsiZLY-18" edge="1">
          <mxGeometry width="50" height="50" relative="1" as="geometry">
            <mxPoint x="297.5" y="-485" as="sourcePoint" />
            <mxPoint x="347.5" y="-515" as="targetPoint" />
          </mxGeometry>
        </mxCell>
        <mxCell id="MIiHgj1x7aSOkdOsiZLY-26" value="" style="endArrow=none;html=1;rounded=0;exitX=0.5;exitY=0;exitDx=0;exitDy=0;entryX=0.5;entryY=1;entryDx=0;entryDy=0;" parent="1" source="MIiHgj1x7aSOkdOsiZLY-21" target="MIiHgj1x7aSOkdOsiZLY-18" edge="1">
          <mxGeometry width="50" height="50" relative="1" as="geometry">
            <mxPoint x="297.5" y="-485" as="sourcePoint" />
            <mxPoint x="337.5" y="-525" as="targetPoint" />
          </mxGeometry>
        </mxCell>
        <mxCell id="MIiHgj1x7aSOkdOsiZLY-27" value="" style="endArrow=none;html=1;rounded=0;exitX=0.5;exitY=0;exitDx=0;exitDy=0;entryX=0.5;entryY=1;entryDx=0;entryDy=0;" parent="1" source="MIiHgj1x7aSOkdOsiZLY-29" target="MIiHgj1x7aSOkdOsiZLY-18" edge="1">
          <mxGeometry width="50" height="50" relative="1" as="geometry">
            <mxPoint x="457.5" y="-485" as="sourcePoint" />
            <mxPoint x="387.5" y="-505" as="targetPoint" />
          </mxGeometry>
        </mxCell>
        <mxCell id="MIiHgj1x7aSOkdOsiZLY-28" value="" style="endArrow=none;html=1;rounded=0;exitX=0.5;exitY=0;exitDx=0;exitDy=0;entryX=0.5;entryY=1;entryDx=0;entryDy=0;" parent="1" source="MIiHgj1x7aSOkdOsiZLY-23" target="MIiHgj1x7aSOkdOsiZLY-18" edge="1">
          <mxGeometry width="50" height="50" relative="1" as="geometry">
            <mxPoint x="297.5" y="-485" as="sourcePoint" />
            <mxPoint x="347.5" y="-535" as="targetPoint" />
          </mxGeometry>
        </mxCell>
        <mxCell id="MIiHgj1x7aSOkdOsiZLY-29" value="items" style="ellipse;shape=doubleEllipse;margin=3;whiteSpace=wrap;html=1;align=center;" parent="1" vertex="1">
          <mxGeometry x="412.5" y="-485" width="100" height="40" as="geometry" />
        </mxCell>
        <mxCell id="NmWSNL_gSRvV90mNXlNz-2" style="edgeStyle=orthogonalEdgeStyle;rounded=0;orthogonalLoop=1;jettySize=auto;html=1;exitX=0.5;exitY=1;exitDx=0;exitDy=0;entryX=0.5;entryY=0;entryDx=0;entryDy=0;startArrow=ERone;startFill=0;endArrow=none;endFill=0;" parent="1" source="MIiHgj1x7aSOkdOsiZLY-64" target="MIiHgj1x7aSOkdOsiZLY-116" edge="1">
          <mxGeometry relative="1" as="geometry" />
        </mxCell>
        <mxCell id="MIiHgj1x7aSOkdOsiZLY-64" value="COURIER" style="rounded=0;whiteSpace=wrap;html=1;" parent="1" vertex="1">
          <mxGeometry x="287.5" y="-770" width="110" height="40" as="geometry" />
        </mxCell>
        <mxCell id="MIiHgj1x7aSOkdOsiZLY-65" value="courier_id" style="ellipse;whiteSpace=wrap;html=1;align=center;fontStyle=4;" parent="1" vertex="1">
          <mxGeometry x="67.5" y="-860" width="100" height="40" as="geometry" />
        </mxCell>
        <mxCell id="MIiHgj1x7aSOkdOsiZLY-66" value="name" style="ellipse;whiteSpace=wrap;html=1;align=center;" parent="1" vertex="1">
          <mxGeometry x="177.5" y="-860" width="100" height="40" as="geometry" />
        </mxCell>
        <mxCell id="MIiHgj1x7aSOkdOsiZLY-67" value="phoneNumber" style="ellipse;whiteSpace=wrap;html=1;align=center;" parent="1" vertex="1">
          <mxGeometry x="292.5" y="-860" width="100" height="40" as="geometry" />
        </mxCell>
        <mxCell id="MIiHgj1x7aSOkdOsiZLY-68" value="isActive" style="ellipse;whiteSpace=wrap;html=1;align=center;" parent="1" vertex="1">
          <mxGeometry x="527.5" y="-860" width="100" height="40" as="geometry" />
        </mxCell>
        <mxCell id="MIiHgj1x7aSOkdOsiZLY-69" value="" style="endArrow=none;html=1;rounded=0;exitX=0.5;exitY=1;exitDx=0;exitDy=0;entryX=0.5;entryY=0;entryDx=0;entryDy=0;" parent="1" source="MIiHgj1x7aSOkdOsiZLY-65" target="MIiHgj1x7aSOkdOsiZLY-64" edge="1">
          <mxGeometry width="50" height="50" relative="1" as="geometry">
            <mxPoint x="297.5" y="-680" as="sourcePoint" />
            <mxPoint x="347.5" y="-730" as="targetPoint" />
          </mxGeometry>
        </mxCell>
        <mxCell id="MIiHgj1x7aSOkdOsiZLY-70" value="" style="endArrow=none;html=1;rounded=0;exitX=0.5;exitY=1;exitDx=0;exitDy=0;entryX=0.5;entryY=0;entryDx=0;entryDy=0;" parent="1" source="MIiHgj1x7aSOkdOsiZLY-66" target="MIiHgj1x7aSOkdOsiZLY-64" edge="1">
          <mxGeometry width="50" height="50" relative="1" as="geometry">
            <mxPoint x="297.5" y="-680" as="sourcePoint" />
            <mxPoint x="347.5" y="-710" as="targetPoint" />
          </mxGeometry>
        </mxCell>
        <mxCell id="MIiHgj1x7aSOkdOsiZLY-71" value="" style="endArrow=none;html=1;rounded=0;entryX=0.5;entryY=0;entryDx=0;entryDy=0;exitX=0.5;exitY=1;exitDx=0;exitDy=0;" parent="1" source="MIiHgj1x7aSOkdOsiZLY-67" target="MIiHgj1x7aSOkdOsiZLY-64" edge="1">
          <mxGeometry width="50" height="50" relative="1" as="geometry">
            <mxPoint x="342.5" y="-820" as="sourcePoint" />
            <mxPoint x="337.5" y="-720" as="targetPoint" />
          </mxGeometry>
        </mxCell>
        <mxCell id="MIiHgj1x7aSOkdOsiZLY-72" value="" style="endArrow=none;html=1;rounded=0;exitX=0.5;exitY=1;exitDx=0;exitDy=0;entryX=0.5;entryY=0;entryDx=0;entryDy=0;" parent="1" source="MIiHgj1x7aSOkdOsiZLY-74" target="MIiHgj1x7aSOkdOsiZLY-64" edge="1">
          <mxGeometry width="50" height="50" relative="1" as="geometry">
            <mxPoint x="462.5" y="-680" as="sourcePoint" />
            <mxPoint x="387.5" y="-700" as="targetPoint" />
          </mxGeometry>
        </mxCell>
        <mxCell id="MIiHgj1x7aSOkdOsiZLY-73" value="" style="endArrow=none;html=1;rounded=0;exitX=0.5;exitY=1;exitDx=0;exitDy=0;" parent="1" source="MIiHgj1x7aSOkdOsiZLY-68" edge="1">
          <mxGeometry width="50" height="50" relative="1" as="geometry">
            <mxPoint x="297.5" y="-680" as="sourcePoint" />
            <mxPoint x="342.5" y="-770" as="targetPoint" />
          </mxGeometry>
        </mxCell>
        <mxCell id="MIiHgj1x7aSOkdOsiZLY-74" value="transportType" style="ellipse;whiteSpace=wrap;html=1;align=center;" parent="1" vertex="1">
          <mxGeometry x="412.5" y="-860" width="100" height="40" as="geometry" />
        </mxCell>
        <mxCell id="MIiHgj1x7aSOkdOsiZLY-78" value="regularCustomer" style="ellipse;whiteSpace=wrap;html=1;align=center;" parent="1" vertex="1">
          <mxGeometry x="1490" y="-485" width="100" height="40" as="geometry" />
        </mxCell>
        <mxCell id="MIiHgj1x7aSOkdOsiZLY-79" value="" style="endArrow=none;html=1;rounded=0;entryX=0.5;entryY=1;entryDx=0;entryDy=0;exitX=0.5;exitY=0;exitDx=0;exitDy=0;" parent="1" source="MIiHgj1x7aSOkdOsiZLY-78" target="MIiHgj1x7aSOkdOsiZLY-5" edge="1">
          <mxGeometry width="50" height="50" relative="1" as="geometry">
            <mxPoint x="1040" y="-285" as="sourcePoint" />
            <mxPoint x="1090" y="-335" as="targetPoint" />
          </mxGeometry>
        </mxCell>
        <mxCell id="MIiHgj1x7aSOkdOsiZLY-80" value="INGREDIENTS" style="rounded=0;whiteSpace=wrap;html=1;" parent="1" vertex="1">
          <mxGeometry x="-1385" y="-575" width="110" height="40" as="geometry" />
        </mxCell>
        <mxCell id="MIiHgj1x7aSOkdOsiZLY-81" value="ingredient_id" style="ellipse;whiteSpace=wrap;html=1;align=center;fontStyle=4;" parent="1" vertex="1">
          <mxGeometry x="-1610" y="-485" width="100" height="40" as="geometry" />
        </mxCell>
        <mxCell id="MIiHgj1x7aSOkdOsiZLY-82" value="name" style="ellipse;whiteSpace=wrap;html=1;align=center;" parent="1" vertex="1">
          <mxGeometry x="-1500" y="-485" width="100" height="40" as="geometry" />
        </mxCell>
        <mxCell id="MIiHgj1x7aSOkdOsiZLY-83" value="type" style="ellipse;whiteSpace=wrap;html=1;align=center;" parent="1" vertex="1">
          <mxGeometry x="-1385" y="-485" width="100" height="40" as="geometry" />
        </mxCell>
        <mxCell id="MIiHgj1x7aSOkdOsiZLY-84" value="stockQuantity" style="ellipse;whiteSpace=wrap;html=1;align=center;" parent="1" vertex="1">
          <mxGeometry x="-1150" y="-485" width="100" height="40" as="geometry" />
        </mxCell>
        <mxCell id="MIiHgj1x7aSOkdOsiZLY-85" value="" style="endArrow=none;html=1;rounded=0;exitX=0.5;exitY=0;exitDx=0;exitDy=0;entryX=0.5;entryY=1;entryDx=0;entryDy=0;" parent="1" source="MIiHgj1x7aSOkdOsiZLY-81" target="MIiHgj1x7aSOkdOsiZLY-80" edge="1">
          <mxGeometry width="50" height="50" relative="1" as="geometry">
            <mxPoint x="-1375" y="-485" as="sourcePoint" />
            <mxPoint x="-1325" y="-535" as="targetPoint" />
          </mxGeometry>
        </mxCell>
        <mxCell id="MIiHgj1x7aSOkdOsiZLY-86" value="" style="endArrow=none;html=1;rounded=0;exitX=0.5;exitY=0;exitDx=0;exitDy=0;entryX=0.5;entryY=1;entryDx=0;entryDy=0;" parent="1" source="MIiHgj1x7aSOkdOsiZLY-82" target="MIiHgj1x7aSOkdOsiZLY-80" edge="1">
          <mxGeometry width="50" height="50" relative="1" as="geometry">
            <mxPoint x="-1375" y="-485" as="sourcePoint" />
            <mxPoint x="-1325" y="-515" as="targetPoint" />
          </mxGeometry>
        </mxCell>
        <mxCell id="MIiHgj1x7aSOkdOsiZLY-87" value="" style="endArrow=none;html=1;rounded=0;exitX=0.5;exitY=0;exitDx=0;exitDy=0;entryX=0.5;entryY=1;entryDx=0;entryDy=0;" parent="1" source="MIiHgj1x7aSOkdOsiZLY-83" target="MIiHgj1x7aSOkdOsiZLY-80" edge="1">
          <mxGeometry width="50" height="50" relative="1" as="geometry">
            <mxPoint x="-1375" y="-485" as="sourcePoint" />
            <mxPoint x="-1335" y="-525" as="targetPoint" />
          </mxGeometry>
        </mxCell>
        <mxCell id="MIiHgj1x7aSOkdOsiZLY-88" value="" style="endArrow=none;html=1;rounded=0;exitX=0.5;exitY=0;exitDx=0;exitDy=0;entryX=0.5;entryY=1;entryDx=0;entryDy=0;" parent="1" source="MIiHgj1x7aSOkdOsiZLY-90" target="MIiHgj1x7aSOkdOsiZLY-80" edge="1">
          <mxGeometry width="50" height="50" relative="1" as="geometry">
            <mxPoint x="-1210" y="-485" as="sourcePoint" />
            <mxPoint x="-1285" y="-505" as="targetPoint" />
          </mxGeometry>
        </mxCell>
        <mxCell id="MIiHgj1x7aSOkdOsiZLY-89" value="" style="endArrow=none;html=1;rounded=0;exitX=0.5;exitY=0;exitDx=0;exitDy=0;entryX=0.5;entryY=1;entryDx=0;entryDy=0;" parent="1" source="MIiHgj1x7aSOkdOsiZLY-84" target="MIiHgj1x7aSOkdOsiZLY-80" edge="1">
          <mxGeometry width="50" height="50" relative="1" as="geometry">
            <mxPoint x="-1375" y="-485" as="sourcePoint" />
            <mxPoint x="-1325" y="-535" as="targetPoint" />
          </mxGeometry>
        </mxCell>
        <mxCell id="MIiHgj1x7aSOkdOsiZLY-90" value="purchasePrice" style="ellipse;whiteSpace=wrap;html=1;align=center;" parent="1" vertex="1">
          <mxGeometry x="-1265" y="-485" width="100" height="40" as="geometry" />
        </mxCell>
        <mxCell id="MIiHgj1x7aSOkdOsiZLY-91" value="CREATE_ORDER" style="rhombus;whiteSpace=wrap;html=1;" parent="1" vertex="1">
          <mxGeometry x="700" y="-585" width="140" height="60" as="geometry" />
        </mxCell>
        <mxCell id="MIiHgj1x7aSOkdOsiZLY-92" value="orderingDate" style="ellipse;whiteSpace=wrap;html=1;align=center;" parent="1" vertex="1">
          <mxGeometry x="720" y="-485" width="100" height="40" as="geometry" />
        </mxCell>
        <mxCell id="MIiHgj1x7aSOkdOsiZLY-94" value="" style="endArrow=none;html=1;rounded=0;entryX=0.5;entryY=1;entryDx=0;entryDy=0;exitX=0.5;exitY=0;exitDx=0;exitDy=0;" parent="1" source="MIiHgj1x7aSOkdOsiZLY-92" target="MIiHgj1x7aSOkdOsiZLY-91" edge="1">
          <mxGeometry width="50" height="50" relative="1" as="geometry">
            <mxPoint x="770" y="-305" as="sourcePoint" />
            <mxPoint x="820" y="-355" as="targetPoint" />
          </mxGeometry>
        </mxCell>
        <mxCell id="MIiHgj1x7aSOkdOsiZLY-96" value="" style="edgeStyle=entityRelationEdgeStyle;fontSize=12;html=1;endArrow=ERone;rounded=0;entryX=0;entryY=0.5;entryDx=0;entryDy=0;exitX=1;exitY=0.5;exitDx=0;exitDy=0;endFill=0;" parent="1" source="MIiHgj1x7aSOkdOsiZLY-91" target="MIiHgj1x7aSOkdOsiZLY-5" edge="1">
          <mxGeometry width="100" height="100" relative="1" as="geometry">
            <mxPoint x="990" y="-565" as="sourcePoint" />
            <mxPoint x="1090" y="-665" as="targetPoint" />
          </mxGeometry>
        </mxCell>
        <mxCell id="MIiHgj1x7aSOkdOsiZLY-97" value="" style="edgeStyle=entityRelationEdgeStyle;fontSize=12;html=1;endArrow=none;rounded=0;exitX=1;exitY=0.5;exitDx=0;exitDy=0;entryX=0;entryY=0.5;entryDx=0;entryDy=0;startArrow=ERone;startFill=0;endFill=0;" parent="1" source="MIiHgj1x7aSOkdOsiZLY-18" target="MIiHgj1x7aSOkdOsiZLY-91" edge="1">
          <mxGeometry width="100" height="100" relative="1" as="geometry">
            <mxPoint x="990" y="-565" as="sourcePoint" />
            <mxPoint x="1090" y="-665" as="targetPoint" />
          </mxGeometry>
        </mxCell>
        <mxCell id="MIiHgj1x7aSOkdOsiZLY-98" value="PRODUCT" style="rounded=0;whiteSpace=wrap;html=1;" parent="1" vertex="1">
          <mxGeometry x="-550" y="-575" width="110" height="40" as="geometry" />
        </mxCell>
        <mxCell id="MIiHgj1x7aSOkdOsiZLY-99" value="product_id" style="ellipse;whiteSpace=wrap;html=1;align=center;fontStyle=4;" parent="1" vertex="1">
          <mxGeometry x="-770" y="-485" width="100" height="40" as="geometry" />
        </mxCell>
        <mxCell id="MIiHgj1x7aSOkdOsiZLY-100" value="name" style="ellipse;whiteSpace=wrap;html=1;align=center;" parent="1" vertex="1">
          <mxGeometry x="-660" y="-485" width="100" height="40" as="geometry" />
        </mxCell>
        <mxCell id="MIiHgj1x7aSOkdOsiZLY-101" value="price" style="ellipse;whiteSpace=wrap;html=1;align=center;" parent="1" vertex="1">
          <mxGeometry x="-545" y="-485" width="100" height="40" as="geometry" />
        </mxCell>
        <mxCell id="MIiHgj1x7aSOkdOsiZLY-102" value="description" style="ellipse;whiteSpace=wrap;html=1;align=center;" parent="1" vertex="1">
          <mxGeometry x="-310" y="-485" width="100" height="40" as="geometry" />
        </mxCell>
        <mxCell id="MIiHgj1x7aSOkdOsiZLY-103" value="" style="endArrow=none;html=1;rounded=0;exitX=0.5;exitY=0;exitDx=0;exitDy=0;entryX=0.5;entryY=1;entryDx=0;entryDy=0;" parent="1" source="MIiHgj1x7aSOkdOsiZLY-99" target="MIiHgj1x7aSOkdOsiZLY-98" edge="1">
          <mxGeometry width="50" height="50" relative="1" as="geometry">
            <mxPoint x="-540" y="-485" as="sourcePoint" />
            <mxPoint x="-490" y="-535" as="targetPoint" />
          </mxGeometry>
        </mxCell>
        <mxCell id="MIiHgj1x7aSOkdOsiZLY-104" value="" style="endArrow=none;html=1;rounded=0;exitX=0.5;exitY=0;exitDx=0;exitDy=0;entryX=0.5;entryY=1;entryDx=0;entryDy=0;" parent="1" source="MIiHgj1x7aSOkdOsiZLY-100" target="MIiHgj1x7aSOkdOsiZLY-98" edge="1">
          <mxGeometry width="50" height="50" relative="1" as="geometry">
            <mxPoint x="-540" y="-485" as="sourcePoint" />
            <mxPoint x="-490" y="-515" as="targetPoint" />
          </mxGeometry>
        </mxCell>
        <mxCell id="MIiHgj1x7aSOkdOsiZLY-105" value="" style="endArrow=none;html=1;rounded=0;exitX=0.5;exitY=0;exitDx=0;exitDy=0;entryX=0.5;entryY=1;entryDx=0;entryDy=0;" parent="1" source="MIiHgj1x7aSOkdOsiZLY-101" target="MIiHgj1x7aSOkdOsiZLY-98" edge="1">
          <mxGeometry width="50" height="50" relative="1" as="geometry">
            <mxPoint x="-540" y="-485" as="sourcePoint" />
            <mxPoint x="-500" y="-525" as="targetPoint" />
          </mxGeometry>
        </mxCell>
        <mxCell id="MIiHgj1x7aSOkdOsiZLY-106" value="" style="endArrow=none;html=1;rounded=0;exitX=0.5;exitY=0;exitDx=0;exitDy=0;entryX=0.5;entryY=1;entryDx=0;entryDy=0;" parent="1" source="MIiHgj1x7aSOkdOsiZLY-108" target="MIiHgj1x7aSOkdOsiZLY-98" edge="1">
          <mxGeometry width="50" height="50" relative="1" as="geometry">
            <mxPoint x="-380" y="-485" as="sourcePoint" />
            <mxPoint x="-450" y="-505" as="targetPoint" />
          </mxGeometry>
        </mxCell>
        <mxCell id="MIiHgj1x7aSOkdOsiZLY-107" value="" style="endArrow=none;html=1;rounded=0;exitX=0.5;exitY=0;exitDx=0;exitDy=0;entryX=0.5;entryY=1;entryDx=0;entryDy=0;" parent="1" source="MIiHgj1x7aSOkdOsiZLY-102" target="MIiHgj1x7aSOkdOsiZLY-98" edge="1">
          <mxGeometry width="50" height="50" relative="1" as="geometry">
            <mxPoint x="-540" y="-485" as="sourcePoint" />
            <mxPoint x="-490" y="-535" as="targetPoint" />
          </mxGeometry>
        </mxCell>
        <mxCell id="MIiHgj1x7aSOkdOsiZLY-108" value="type" style="ellipse;shape=doubleEllipse;margin=3;whiteSpace=wrap;html=1;align=center;" parent="1" vertex="1">
          <mxGeometry x="-425" y="-485" width="100" height="40" as="geometry" />
        </mxCell>
        <mxCell id="MIiHgj1x7aSOkdOsiZLY-109" value="ORDERED_ITEMS" style="rhombus;whiteSpace=wrap;html=1;" parent="1" vertex="1">
          <mxGeometry x="-140" y="-585" width="140" height="60" as="geometry" />
        </mxCell>
        <mxCell id="MIiHgj1x7aSOkdOsiZLY-114" value="" style="edgeStyle=entityRelationEdgeStyle;fontSize=12;html=1;endArrow=none;startArrow=ERmany;rounded=0;entryX=0;entryY=0.5;entryDx=0;entryDy=0;exitX=1;exitY=0.5;exitDx=0;exitDy=0;startFill=0;endFill=0;" parent="1" source="MIiHgj1x7aSOkdOsiZLY-98" target="MIiHgj1x7aSOkdOsiZLY-109" edge="1">
          <mxGeometry width="100" height="100" relative="1" as="geometry">
            <mxPoint x="-90" y="-135" as="sourcePoint" />
            <mxPoint x="10" y="-235" as="targetPoint" />
          </mxGeometry>
        </mxCell>
        <mxCell id="MIiHgj1x7aSOkdOsiZLY-115" value="" style="edgeStyle=entityRelationEdgeStyle;fontSize=12;html=1;endArrow=none;startArrow=ERmany;rounded=0;entryX=1;entryY=0.5;entryDx=0;entryDy=0;exitX=0;exitY=0.5;exitDx=0;exitDy=0;startFill=0;endFill=0;" parent="1" source="MIiHgj1x7aSOkdOsiZLY-18" target="MIiHgj1x7aSOkdOsiZLY-109" edge="1">
          <mxGeometry width="100" height="100" relative="1" as="geometry">
            <mxPoint x="-510" y="-545" as="sourcePoint" />
            <mxPoint x="-170" y="-545" as="targetPoint" />
          </mxGeometry>
        </mxCell>
        <mxCell id="NmWSNL_gSRvV90mNXlNz-1" style="edgeStyle=orthogonalEdgeStyle;rounded=0;orthogonalLoop=1;jettySize=auto;html=1;exitX=0.5;exitY=1;exitDx=0;exitDy=0;entryX=0.5;entryY=0;entryDx=0;entryDy=0;startArrow=none;startFill=0;endArrow=ERmany;endFill=0;" parent="1" source="MIiHgj1x7aSOkdOsiZLY-116" target="MIiHgj1x7aSOkdOsiZLY-18" edge="1">
          <mxGeometry relative="1" as="geometry" />
        </mxCell>
        <mxCell id="MIiHgj1x7aSOkdOsiZLY-116" value="COURIER_DEMAND" style="rhombus;whiteSpace=wrap;html=1;" parent="1" vertex="1">
          <mxGeometry x="272.5" y="-695" width="140" height="60" as="geometry" />
        </mxCell>
        <mxCell id="MIiHgj1x7aSOkdOsiZLY-117" value="orderingDate" style="ellipse;whiteSpace=wrap;html=1;align=center;" parent="1" vertex="1">
          <mxGeometry x="-10" y="-685" width="100" height="40" as="geometry" />
        </mxCell>
        <mxCell id="MIiHgj1x7aSOkdOsiZLY-119" value="" style="endArrow=none;html=1;rounded=0;entryX=0;entryY=0.5;entryDx=0;entryDy=0;exitX=1;exitY=0.5;exitDx=0;exitDy=0;" parent="1" source="MIiHgj1x7aSOkdOsiZLY-117" target="MIiHgj1x7aSOkdOsiZLY-116" edge="1">
          <mxGeometry width="50" height="50" relative="1" as="geometry">
            <mxPoint x="210" y="-425" as="sourcePoint" />
            <mxPoint x="260" y="-475" as="targetPoint" />
          </mxGeometry>
        </mxCell>
        <mxCell id="MIiHgj1x7aSOkdOsiZLY-128" value="MADE_OF" style="rhombus;whiteSpace=wrap;html=1;" parent="1" vertex="1">
          <mxGeometry x="-980" y="-585" width="140" height="60" as="geometry" />
        </mxCell>
        <mxCell id="MIiHgj1x7aSOkdOsiZLY-133" value="" style="edgeStyle=entityRelationEdgeStyle;fontSize=12;html=1;endArrow=none;startArrow=ERmany;rounded=0;exitX=1;exitY=0.5;exitDx=0;exitDy=0;entryX=0;entryY=0.5;entryDx=0;entryDy=0;endFill=0;" parent="1" source="MIiHgj1x7aSOkdOsiZLY-80" target="MIiHgj1x7aSOkdOsiZLY-128" edge="1">
          <mxGeometry width="100" height="100" relative="1" as="geometry">
            <mxPoint x="-1010" y="-445" as="sourcePoint" />
            <mxPoint x="-910" y="-545" as="targetPoint" />
          </mxGeometry>
        </mxCell>
        <mxCell id="MIiHgj1x7aSOkdOsiZLY-134" value="" style="edgeStyle=entityRelationEdgeStyle;fontSize=12;html=1;endArrow=ERmany;startArrow=none;rounded=0;exitX=1;exitY=0.5;exitDx=0;exitDy=0;entryX=0;entryY=0.5;entryDx=0;entryDy=0;endFill=0;startFill=0;" parent="1" source="MIiHgj1x7aSOkdOsiZLY-128" target="MIiHgj1x7aSOkdOsiZLY-98" edge="1">
          <mxGeometry width="100" height="100" relative="1" as="geometry">
            <mxPoint x="-1265" y="-545" as="sourcePoint" />
            <mxPoint x="-970" y="-545" as="targetPoint" />
          </mxGeometry>
        </mxCell>
        <mxCell id="MIiHgj1x7aSOkdOsiZLY-135" value="postalCode" style="ellipse;whiteSpace=wrap;html=1;align=center;" parent="1" vertex="1">
          <mxGeometry x="970" y="-415" width="100" height="40" as="geometry" />
        </mxCell>
        <mxCell id="MIiHgj1x7aSOkdOsiZLY-136" value="street" style="ellipse;whiteSpace=wrap;html=1;align=center;" parent="1" vertex="1">
          <mxGeometry x="1080" y="-415" width="100" height="40" as="geometry" />
        </mxCell>
        <mxCell id="MIiHgj1x7aSOkdOsiZLY-137" value="houseNumber" style="ellipse;whiteSpace=wrap;html=1;align=center;" parent="1" vertex="1">
          <mxGeometry x="1190" y="-415" width="100" height="40" as="geometry" />
        </mxCell>
        <mxCell id="MIiHgj1x7aSOkdOsiZLY-139" value="doorNunber" style="ellipse;whiteSpace=wrap;html=1;align=center;" parent="1" vertex="1">
          <mxGeometry x="1300" y="-415" width="100" height="40" as="geometry" />
        </mxCell>
        <mxCell id="MIiHgj1x7aSOkdOsiZLY-140" value="" style="endArrow=none;html=1;rounded=0;exitX=0.5;exitY=0;exitDx=0;exitDy=0;entryX=0.5;entryY=1;entryDx=0;entryDy=0;" parent="1" source="MIiHgj1x7aSOkdOsiZLY-135" target="MIiHgj1x7aSOkdOsiZLY-10" edge="1">
          <mxGeometry width="50" height="50" relative="1" as="geometry">
            <mxPoint x="1180" y="-605" as="sourcePoint" />
            <mxPoint x="1230" y="-655" as="targetPoint" />
          </mxGeometry>
        </mxCell>
        <mxCell id="MIiHgj1x7aSOkdOsiZLY-141" value="" style="endArrow=none;html=1;rounded=0;exitX=0.5;exitY=0;exitDx=0;exitDy=0;entryX=0.5;entryY=1;entryDx=0;entryDy=0;" parent="1" source="MIiHgj1x7aSOkdOsiZLY-136" target="MIiHgj1x7aSOkdOsiZLY-10" edge="1">
          <mxGeometry width="50" height="50" relative="1" as="geometry">
            <mxPoint x="1030" y="-405" as="sourcePoint" />
            <mxPoint x="1190" y="-425" as="targetPoint" />
          </mxGeometry>
        </mxCell>
        <mxCell id="MIiHgj1x7aSOkdOsiZLY-142" value="" style="endArrow=none;html=1;rounded=0;exitX=0.5;exitY=0;exitDx=0;exitDy=0;entryX=0.5;entryY=1;entryDx=0;entryDy=0;" parent="1" source="MIiHgj1x7aSOkdOsiZLY-137" target="MIiHgj1x7aSOkdOsiZLY-10" edge="1">
          <mxGeometry width="50" height="50" relative="1" as="geometry">
            <mxPoint x="1140" y="-405" as="sourcePoint" />
            <mxPoint x="1195" y="-435" as="targetPoint" />
          </mxGeometry>
        </mxCell>
        <mxCell id="MIiHgj1x7aSOkdOsiZLY-144" value="" style="endArrow=none;dashed=1;html=1;dashPattern=1 3;strokeWidth=2;rounded=0;exitX=0.5;exitY=0;exitDx=0;exitDy=0;entryX=0.5;entryY=1;entryDx=0;entryDy=0;" parent="1" source="MIiHgj1x7aSOkdOsiZLY-139" target="MIiHgj1x7aSOkdOsiZLY-10" edge="1">
          <mxGeometry width="50" height="50" relative="1" as="geometry">
            <mxPoint x="1180" y="-605" as="sourcePoint" />
            <mxPoint x="1230" y="-655" as="targetPoint" />
          </mxGeometry>
        </mxCell>
      </root>
    </mxGraphModel>
  </diagram>
</mxfile>
